HIERARCHY
ROOT Hips
{
    OFFSET   0.000000   0.000000   0.000000
    CHANNELS 6 Xposition Yposition Zposition Zrotation Xrotation Yrotation
    JOINT Chest
    {
        OFFSET   0.000000   8.007230   0.000000
        CHANNELS 3 Zrotation Xrotation Yrotation
        JOINT Chest2
        {
            OFFSET   0.000000  22.077100   0.000000
            CHANNELS 3 Zrotation Xrotation Yrotation
            JOINT Neck
            {
                OFFSET   0.000000  23.255100   0.000000
                CHANNELS 3 Zrotation Xrotation Yrotation
                JOINT Head
                {
                    OFFSET   0.000000  14.370100   1.956600
                    CHANNELS 3 Zrotation Xrotation Yrotation
                    End Site
                    {
                        OFFSET   0.000000  19.566000   0.000000
                    }
                }
            }
            JOINT LeftCollar
            {
                OFFSET   3.911900  19.017000  -0.467063
                CHANNELS 3 Zrotation Xrotation Yrotation
                JOINT LeftShoulder
                {
                    OFFSET  10.383700   0.000000   0.000000
                    CHANNELS 3 Zrotation Xrotation Yrotation
                    JOINT LeftElbow
                    {
                        OFFSET  26.662100   0.001193   0.000980
                        CHANNELS 3 Zrotation Xrotation Yrotation
                        JOINT LeftWrist
                        {
                            OFFSET  28.869000  -0.000059  -0.000082
                            CHANNELS 3 Zrotation Xrotation Yrotation
                            JOINT LeftFinger0
                            {
                                OFFSET   2.044650  -2.323450   3.252850
                                CHANNELS 3 Zrotation Xrotation Yrotation
                                JOINT LeftFinger01
                                {
                                    OFFSET   3.088130   0.000000   0.000000
                                    CHANNELS 3 Zrotation Xrotation Yrotation
                                    JOINT LeftFinger02
                                    {
                                        OFFSET   2.639460   0.000000   0.000000
                                        CHANNELS 3 Zrotation Xrotation Yrotation
                                        End Site
                                        {
                                            OFFSET   2.582190   0.000000   0.000000
                                        }
                                    }
                                }
                            }
                            JOINT LeftFinger1
                            {
                                OFFSET   8.364480   0.000000   3.252850
                                CHANNELS 3 Zrotation Xrotation Yrotation
                                JOINT LeftFinger11
                                {
                                    OFFSET   4.646930   0.000000   0.000000
                                    CHANNELS 3 Zrotation Xrotation Yrotation
                                    JOINT LeftFinger12
                                    {
                                        OFFSET   2.323470   0.000000   0.000000
                                        CHANNELS 3 Zrotation Xrotation Yrotation
                                        End Site
                                        {
                                            OFFSET   2.273050   0.000000   0.000000
                                        }
                                    }
                                }
                            }
                            JOINT LeftFinger2
                            {
                                OFFSET   8.364490   0.000016   1.078090
                                CHANNELS 3 Zrotation Xrotation Yrotation
                                JOINT LeftFinger21
                                {
                                    OFFSET   5.111610   0.000000   0.000000
                                    CHANNELS 3 Zrotation Xrotation Yrotation
                                    JOINT LeftFinger22
                                    {
                                        OFFSET   2.788150   0.000016   0.000000
                                        CHANNELS 3 Zrotation Xrotation Yrotation
                                        End Site
                                        {
                                            OFFSET   2.727660   0.000000   0.000000
                                        }
                                    }
                                }
                            }
                            JOINT LeftFinger3
                            {
                                OFFSET   7.899780   0.000015  -1.078090
                                CHANNELS 3 Zrotation Xrotation Yrotation
                                JOINT LeftFinger31
                                {
                                    OFFSET   4.646930   0.000000   0.000000
                                    CHANNELS 3 Zrotation Xrotation Yrotation
                                    JOINT LeftFinger32
                                    {
                                        OFFSET   2.323470   0.000000   0.000000
                                        CHANNELS 3 Zrotation Xrotation Yrotation
                                        End Site
                                        {
                                            OFFSET   2.273050   0.000000   0.000000
                                        }
                                    }
                                }
                            }
                            JOINT LeftFinger4
                            {
                                OFFSET   7.435090   0.000000  -3.252850
                                CHANNELS 3 Zrotation Xrotation Yrotation
                                JOINT LeftFinger41
                                {
                                    OFFSET   3.717550   0.000000   0.000000
                                    CHANNELS 3 Zrotation Xrotation Yrotation
                                    JOINT LeftFinger42
                                    {
                                        OFFSET   1.858770   0.000000   0.000000
                                        CHANNELS 3 Zrotation Xrotation Yrotation
                                        End Site
                                        {
                                            OFFSET   1.818440   0.000000   0.000000
                                        }
                                    }
                                }
                            }
                        }
                    }
                }
            }
            JOINT RightCollar
            {
                OFFSET  -3.911910  19.017000  -0.467062
                CHANNELS 3 Zrotation Xrotation Yrotation
                JOINT RightShoulder
                {
                    OFFSET -10.383700   0.000014   0.000000
                    CHANNELS 3 Zrotation Xrotation Yrotation
                    JOINT RightElbow
                    {
                        OFFSET -26.662100   0.001225   0.001091
                        CHANNELS 3 Zrotation Xrotation Yrotation
                        JOINT RightWrist
                        {
                            OFFSET -28.869000  -0.000020  -0.000085
                            CHANNELS 3 Zrotation Xrotation Yrotation
                            JOINT RightFinger0
                            {
                                OFFSET  -2.044650  -2.323490   3.252850
                                CHANNELS 3 Zrotation Xrotation Yrotation
                                JOINT RightFinger01
                                {
                                    OFFSET  -3.088130   0.000000   0.000000
                                    CHANNELS 3 Zrotation Xrotation Yrotation
                                    JOINT RightFinger02
                                    {
                                        OFFSET  -2.639460   0.000000   0.000000
                                        CHANNELS 3 Zrotation Xrotation Yrotation
                                        End Site
                                        {
                                            OFFSET  -2.582190   0.000000   0.000000
                                        }
                                    }
                                }
                            }
                            JOINT RightFinger1
                            {
                                OFFSET  -8.364480   0.000000   3.252850
                                CHANNELS 3 Zrotation Xrotation Yrotation
                                JOINT RightFinger11
                                {
                                    OFFSET  -4.646930   0.000000   0.000000
                                    CHANNELS 3 Zrotation Xrotation Yrotation
                                    JOINT RightFinger12
                                    {
                                        OFFSET  -2.323470   0.000000   0.000000
                                        CHANNELS 3 Zrotation Xrotation Yrotation
                                        End Site
                                        {
                                            OFFSET  -2.273050   0.000000   0.000000
                                        }
                                    }
                                }
                            }
                            JOINT RightFinger2
                            {
                                OFFSET  -8.364480   0.000000   1.078090
                                CHANNELS 3 Zrotation Xrotation Yrotation
                                JOINT RightFinger21
                                {
                                    OFFSET  -5.111620   0.000000   0.000000
                                    CHANNELS 3 Zrotation Xrotation Yrotation
                                    JOINT RightFinger22
                                    {
                                        OFFSET  -2.788160   0.000000   0.000000
                                        CHANNELS 3 Zrotation Xrotation Yrotation
                                        End Site
                                        {
                                            OFFSET  -2.727660   0.000000   0.000000
                                        }
                                    }
                                }
                            }
                            JOINT RightFinger3
                            {
                                OFFSET  -7.899780   0.000000  -1.078090
                                CHANNELS 3 Zrotation Xrotation Yrotation
                                JOINT RightFinger31
                                {
                                    OFFSET  -4.646930   0.000000   0.000000
                                    CHANNELS 3 Zrotation Xrotation Yrotation
                                    JOINT RightFinger32
                                    {
                                        OFFSET  -2.323470   0.000000   0.000000
                                        CHANNELS 3 Zrotation Xrotation Yrotation
                                        End Site
                                        {
                                            OFFSET  -2.273050   0.000000   0.000000
                                        }
                                    }
                                }
                            }
                            JOINT RightFinger4
                            {
                                OFFSET  -7.435090   0.000000  -3.252850
                                CHANNELS 3 Zrotation Xrotation Yrotation
                                JOINT RightFinger41
                                {
                                    OFFSET  -3.717550   0.000000   0.000000
                                    CHANNELS 3 Zrotation Xrotation Yrotation
                                    JOINT RightFinger42
                                    {
                                        OFFSET  -1.858760   0.000000   0.000000
                                        CHANNELS 3 Zrotation Xrotation Yrotation
                                        End Site
                                        {
                                            OFFSET  -1.818440   0.000000   0.000000
                                        }
                                    }
                                }
                            }
                        }
                    }
                }
            }
        }
    }
    JOINT LeftHip
    {
        OFFSET   9.783030   0.000000   0.000000
        CHANNELS 3 Zrotation Xrotation Yrotation
        JOINT LeftKnee
        {
            OFFSET   0.000063 -41.789100   0.000608
            CHANNELS 3 Zrotation Xrotation Yrotation
            JOINT LeftAnkle
            {
                OFFSET   0.000048 -41.133200  -0.000184
                CHANNELS 3 Zrotation Xrotation Yrotation
                JOINT LeftToe
                {
                    OFFSET   0.000000  -6.358960  14.674500
                    CHANNELS 3 Zrotation Xrotation Yrotation
                    End Site
                    {
                        OFFSET   0.000000   0.000000   3.913200
                    }
                }
            }
        }
    }
    JOINT RightHip
    {
        OFFSET  -9.783030   0.000000   0.000000
        CHANNELS 3 Zrotation Xrotation Yrotation
        JOINT RightKnee
        {
            OFFSET   0.000071 -41.789100   0.001239
            CHANNELS 3 Zrotation Xrotation Yrotation
            JOINT RightAnkle
            {
                OFFSET   0.000037 -41.133200  -0.000166
                CHANNELS 3 Zrotation Xrotation Yrotation
                JOINT RightToe
                {
                    OFFSET   0.000000  -6.358960  14.674500
                    CHANNELS 3 Zrotation Xrotation Yrotation
                    End Site
                    {
                        OFFSET   0.000000   0.000000   3.913200
                    }
                }
            }
        }
    }
}
MOTION
Frames: 6
Frame Time:   0.016667
  0.731545  89.585000   1.566700  -1.744940 -10.005000   1.618150  -0.401958   6.095630   1.983030  -1.026030  12.173400   4.043840  -4.598360  -2.154380  -0.169907  -7.584480  -4.284910  -7.334910  -3.716890   0.549604   0.331034 -47.095100  -7.313820 -53.749700   6.176730 -23.429800 -122.414000 -47.640300 -54.442800 -23.124900  42.906700  29.970700 -67.829300   8.784700  -0.004385   0.001800   9.392380   0.000018  -0.007035 -88.996100   4.996460  -0.088016 -88.667800   0.004201   0.008600 -66.500800  -0.006376   0.000374 -89.000000  -0.002705   0.003234 -100.324000  -0.007244   0.016846 -75.242800  -0.013515  -0.002007 -88.996500  -4.998700   0.084767 -91.918600  -0.005130   0.016458 -68.939000  -0.012585  -0.000103 -33.588100  -9.235740  13.558600 -52.058700   0.024332   0.002336 -34.671100   0.012038   0.011086   8.092290   2.252170   6.403380  64.576000  28.003400   3.839650  -0.900796  -3.464720  14.966000 -11.428500 -14.286200  -2.690950 -38.243300  30.311400  61.158600  30.852400   0.003012  -0.001701  10.426200   0.001430  -0.001547  28.298700   9.667500  17.324100  24.361900  -0.009801   0.003264  17.053300  -0.000977   0.001888  27.943800   5.443150  10.138800  35.361000  -0.002582  -0.002894  23.550500  -0.002419   0.000295  26.550400   2.085070   4.172150  26.626100  -0.004303   0.002515  17.733000   0.000690   0.000709  31.602700   0.958321   1.555760  47.423500  -0.002616  -0.002706  31.584100   0.003270   0.000823   1.851530  11.443800   4.076010   0.754900   0.093315   8.732030  -2.072990  -2.494930   1.591400   0.000000   0.000000  -0.000000   2.676770  12.194300  -1.803120   0.122575   1.453220 -11.228700  -0.625561  -5.187690  -2.968940   0.000000   0.000000   0.000000
  0.730832  89.584400   1.585030  -1.736400 -10.006500   1.654600  -0.399913   6.088220   1.978610  -1.021100  12.158700   4.034610  -4.613350  -2.146760  -0.170191  -7.608090  -4.268970  -7.359340  -3.708250   0.557983   0.322387 -46.894300  -7.123610 -53.897500   5.883700 -23.374300 -122.641000 -51.510300 -57.738800 -26.946000  44.816700  32.289000 -69.943400   9.058260   0.000353   0.001920   9.529150  -0.000207  -0.006759 -88.996100   4.996440  -0.088020 -88.250800   0.004418   0.004885 -66.188100  -0.003725   0.000312 -89.000000  -0.002758   0.003167 -99.697400  -0.006856   0.007993 -74.773000  -0.006560  -0.001941 -88.996500  -4.999120   0.085672 -91.323700  -0.005006   0.007730 -68.492700  -0.006094  -0.000000 -32.971600  -9.218500  13.875400 -51.148100   0.010343   0.002669 -34.064600   0.005189   0.004629   8.100180   2.261740   6.386110  64.585000  27.989300   3.829430  -0.919906  -3.433130  14.969100 -11.467300 -14.329400  -2.702630 -38.247100  30.320400  61.154300  30.863500   0.002955  -0.001690  10.431800   0.001459  -0.001524  28.299900   9.665180  17.318100  24.361600  -0.009796   0.003216  17.053100  -0.001684   0.001890  27.944400   5.443010  10.136400  35.361900  -0.002553  -0.005513  23.551100  -0.002410   0.000259  26.550000   2.085030   4.175470  26.625800  -0.004295   0.002456  17.732800   0.000658   0.000729  31.595700   0.960471   1.558310  47.413000  -0.002689  -0.002681  31.577100   0.003292   0.000858   1.850370  11.461500   4.079420   0.753624   0.064921   8.710970  -2.070490  -2.481380   1.571360   0.000000   0.000000   0.000000   2.684040  12.196800  -1.804030   0.118089   1.469990 -11.225100  -0.631190  -5.202720  -3.006460   0.000000   0.000000   0.000000
  0.730358  89.584100   1.600590  -1.728500 -10.005300   1.690600  -0.398663   6.072350   1.980090  -1.018190  12.127000   4.037180  -4.614390  -2.141950  -0.170402  -7.610350  -4.259360  -7.397440  -3.700660   0.594890   0.302230 -47.016500  -7.035460 -54.111900   5.890020 -23.392000 -122.719000 -53.713100 -59.434300 -29.269000  45.728100  33.460700 -71.209500   8.807460  -0.000059   0.001122   9.403750  -0.000684  -0.006328 -88.996200   4.996430  -0.088017 -87.809600   0.004645   0.002266 -65.857200  -0.001824   0.000054 -89.000000  -0.002815   0.003096 -99.164400  -0.006354   0.003296 -74.373300  -0.002773  -0.001870 -88.996400  -4.999570   0.086581 -90.803800  -0.004884   0.003216 -68.102900  -0.002126   0.000049 -32.466800  -9.270780  14.223800 -50.439300   0.003776   0.002992 -33.592500   0.001950   0.001352   8.103890   2.287090   6.349430  64.606400  27.968100   3.814640  -0.942683  -3.407010  14.967400 -11.489400 -14.360000  -2.713750 -38.236200  30.314800  61.162600  30.880800  -0.008124   0.006035  10.440400  -0.004065  -0.001495  28.314900   9.671090  17.317300  24.374600  -0.009789   0.003164  17.062100  -0.002742   0.001890  27.944900   5.442880  10.133500  35.388500  -0.008736  -0.008657  23.568800  -0.006803   0.000225  26.564700   2.085040   4.177880  26.640400  -0.004282   0.002406  17.742500   0.000625   0.000745  31.605900   0.960726   1.554540  47.428300  -0.002771  -0.002664  31.587300   0.003313   0.000902   1.849670  11.482400   4.079250   0.754434   0.024262   8.693650  -2.067670  -2.461460   1.554760  -0.000000   0.000000   0.000000   2.689390  12.197900  -1.804860   0.119584   1.482910 -11.222800  -0.638102  -5.216630  -3.041860  -0.000000   0.000000   0.000000
  0.728774  89.583000   1.613930  -1.720490 -10.002600   1.726340  -0.397569   6.053400   1.982630  -1.015440  12.089100   4.041800  -4.615400  -2.128940  -0.170495  -7.610830  -4.233530  -7.440130  -3.693230   0.632989   0.287835 -47.346000  -6.988180 -54.349100   5.977280 -23.386700 -122.756000 -54.665700 -60.333200 -30.314600  46.481200  34.100100 -71.923700   8.475720  -0.000973   0.000324   9.237860  -0.001307  -0.005996 -88.996200   4.996420  -0.088013 -87.415600   0.004874   0.000104 -65.561700  -0.000155  -0.000339 -89.000000  -0.002869   0.003024 -98.709100  -0.005742   0.000073 -74.031900  -0.000132  -0.001799 -88.996300  -5.000040   0.087440 -90.352200  -0.004759   0.000203 -67.764200  -0.000249   0.000084 -32.068300  -9.351470  14.538900 -49.895700  -0.000292   0.003304 -33.230500  -0.000128  -0.000159   8.105850   2.312700   6.317050  64.636000  27.940600   3.792130  -0.959945  -3.381890  14.964500 -11.499300 -14.375900  -2.720310 -38.212900  30.305600  61.175600  30.898000  -0.027177   0.013748  10.449000  -0.013591  -0.001466  28.337400   9.680210  17.317600  24.394100  -0.009782   0.003112  17.075800  -0.003967   0.001891  27.945400   5.442740  10.131000  35.425000  -0.019842  -0.011763  23.593000  -0.014630   0.000190  26.585100   2.085090   4.178920  26.660800  -0.004270   0.002358  17.756100   0.000590   0.000760  31.621500   0.960765   1.548820  47.451800  -0.002853  -0.002644  31.602900   0.003334   0.000945   1.849610  11.495500   4.078450   0.755329  -0.002588   8.676640  -2.066100  -2.448240   1.541110  -0.000000   0.000000   0.000000   2.692830  12.199500  -1.806000   0.121143   1.491610 -11.222000  -0.646189  -5.229540  -3.074750  -0.000000   0.000000  -0.000000
  0.724322  89.578800   1.625600  -1.712300  -9.997670   1.759950  -0.396537   6.035330   1.985320  -1.012970  12.052900   4.046770  -4.619710  -2.098520  -0.169231  -7.615810  -4.172660  -7.478270  -3.687410   0.642757   0.305848 -47.824200  -7.026280 -54.586000   5.977370 -23.201500 -122.759000 -55.208200 -60.988800 -30.763900  46.871900  34.313500 -72.076100   8.395070  -0.002230   0.000405   9.197530  -0.002039  -0.005752 -88.996200   4.996390  -0.088026 -87.248700   0.005096  -0.001064 -65.436500   0.001095  -0.000764 -89.000000  -0.002917   0.002951 -98.477600  -0.005048  -0.001712 -73.858300   0.001313  -0.001731 -88.989000  -5.000570   0.088316 -90.104600  -0.004619  -0.001398 -67.578500  -0.000389   0.000134 -31.892600  -9.389600  14.684900 -49.657900  -0.002574   0.003602 -33.072200  -0.001456  -0.000357   8.107330   2.323530   6.308640  64.671100  27.895900   3.753230  -0.966186  -3.358270  14.962500 -11.492300 -14.369800  -2.713730 -38.202400  30.307500  61.196900  30.908900  -0.048248   0.013742  10.454000  -0.024071  -0.001442  28.352700   9.687360  17.318000  24.407500  -0.009777   0.003056  17.085200  -0.005225   0.001895  27.945800   5.442560  10.130300  35.440900  -0.033354  -0.014264  23.603600  -0.023977   0.000153  26.593300   2.085220   4.174960  26.669000  -0.004257   0.002302  17.761600   0.000553   0.000781  31.633200   0.960684   1.544760  47.469400  -0.002890  -0.002609  31.614600   0.003353   0.000976   1.851290  11.486000   4.076950   0.757812   0.014869   8.656600  -2.071640  -2.457840   1.533780   0.000000   0.000000   0.000000   2.694180  12.201900  -1.808260   0.127111   1.494490 -11.224800  -0.656040  -5.240920  -3.102310   0.000000   0.000000  -0.000000
  0.718494  89.573900   1.634440  -1.704090  -9.994200   1.790610  -0.395511   6.019420   1.986950  -1.010430  12.021200   4.049670  -4.627540  -2.051870  -0.166033  -7.629180  -4.079450  -7.511250  -3.681140   0.644150   0.338292 -48.300900  -7.066920 -54.802700   5.982150 -23.016400 -122.690000 -54.747300 -61.341900 -30.201900  47.247700  34.568700 -72.202000   8.367770  -0.003669   0.000567   9.183880  -0.002809  -0.005579 -88.996100   4.996370  -0.088038 -87.143900   0.005318  -0.002313 -65.357800   0.002305  -0.001188 -89.000000  -0.002964   0.002879 -98.327900  -0.004302  -0.002994 -73.745900   0.002343  -0.001661 -88.981700  -5.001160   0.088801 -89.948000  -0.004474  -0.002462 -67.461100  -0.000655   0.000186 -31.813500  -9.403290  14.755700 -49.550000  -0.003996   0.003889 -33.000300  -0.002432  -0.000426   8.108610   2.326310   6.307450  64.702700  27.867000   3.713160  -0.970226  -3.339280  14.958600 -11.480300 -14.356100  -2.702340 -38.202700  30.317800  61.218800  30.913500  -0.061288   0.013700  10.456300  -0.030551  -0.001422  28.360500   9.691260  17.318200  24.414300  -0.009774   0.002998  17.090000  -0.006378   0.001899  27.946000   5.442360  10.130200  35.446300  -0.041942  -0.015515  23.607200  -0.029889   0.000112  26.595800   2.085430   4.168920  26.671500  -0.004250   0.002244  17.763300   0.000515   0.000804  31.639400   0.960540   1.542660  47.478800  -0.002997  -0.002572  31.620800   0.003372   0.001007   1.852950  11.476500   4.075450   0.760307   0.032328   8.636860  -2.079770  -2.467420   1.531040   0.000000   0.000000   0.000000   2.694990  12.207800  -1.809840   0.136050   1.494870 -11.231500  -0.666051  -5.250230  -3.125900   0.000000   0.000000  -0.000000
